<?xml version="1.0" encoding="UTF-8"?>
<!DOCTYPE svg PUBLIC "-//W3C//DTD SVG 1.1//EN" "http://www.w3.org/Graphics/SVG/1.1/DTD/svg11.dtd">
<svg xmlns="http://www.w3.org/2000/svg" version="1.1" width="260px" height="260px" style="shape-rendering:geometricPrecision; text-rendering:geometricPrecision; image-rendering:optimizeQuality; fill-rule:evenodd; clip-rule:evenodd" xmlns:xlink="http://www.w3.org/1999/xlink">
<g><path style="opacity:1" fill="#f4f3ee" d="M 152.5,41.5 C 152.5,43.8333 152.5,46.1667 152.5,48.5C 157.167,48.5 161.833,48.5 166.5,48.5C 166.5,50.8333 166.5,53.1667 166.5,55.5C 171.167,55.5 175.833,55.5 180.5,55.5C 180.5,57.5 180.5,59.5 180.5,61.5C 184.634,62.4849 188.968,62.8182 193.5,62.5C 193.205,64.7354 193.539,66.7354 194.5,68.5C 196.5,68.5 198.5,68.5 200.5,68.5C 200.5,70.8333 200.5,73.1667 200.5,75.5C 202.5,75.5 204.5,75.5 206.5,75.5C 206.5,82.1667 206.5,88.8333 206.5,95.5C 204.833,95.5 203.167,95.5 201.5,95.5C 201.795,93.2646 201.461,91.2646 200.5,89.5C 198.735,88.5386 196.735,88.2053 194.5,88.5C 194.818,83.9677 194.485,79.6344 193.5,75.5C 189.167,75.5 184.833,75.5 180.5,75.5C 180.5,73.1667 180.5,70.8333 180.5,68.5C 178.167,68.5 175.833,68.5 173.5,68.5C 173.5,66.1667 173.5,63.8333 173.5,61.5C 169.167,61.5 164.833,61.5 160.5,61.5C 160.5,59.1667 160.5,56.8333 160.5,54.5C 155.833,54.5 151.167,54.5 146.5,54.5C 146.5,52.5 146.5,50.5 146.5,48.5C 135.167,48.5 123.833,48.5 112.5,48.5C 112.5,50.5 112.5,52.5 112.5,54.5C 107.833,54.5 103.167,54.5 98.5,54.5C 98.5,56.8333 98.5,59.1667 98.5,61.5C 93.8333,61.5 89.1667,61.5 84.5,61.5C 84.5,63.8333 84.5,66.1667 84.5,68.5C 82.2646,68.2053 80.2646,68.5386 78.5,69.5C 78.5,71.5 78.5,73.5 78.5,75.5C 73.8333,75.5 69.1667,75.5 64.5,75.5C 64.5,79.8333 64.5,84.1667 64.5,88.5C 62.1667,88.5 59.8333,88.5 57.5,88.5C 57.5,90.8333 57.5,93.1667 57.5,95.5C 55.5,95.5 53.5,95.5 51.5,95.5C 51.5,88.8333 51.5,82.1667 51.5,75.5C 53.5,75.5 55.5,75.5 57.5,75.5C 57.5,73.1667 57.5,70.8333 57.5,68.5C 59.8333,68.5 62.1667,68.5 64.5,68.5C 64.5,66.1667 64.5,63.8333 64.5,61.5C 69.1667,61.5 73.8333,61.5 78.5,61.5C 78.5,59.1667 78.5,56.8333 78.5,54.5C 82.8333,54.5 87.1667,54.5 91.5,54.5C 91.5,52.5 91.5,50.5 91.5,48.5C 96.1667,48.5 100.833,48.5 105.5,48.5C 105.5,46.1667 105.5,43.8333 105.5,41.5C 121.167,41.5 136.833,41.5 152.5,41.5 Z"/></g>
<g><path style="opacity:0.942" fill="#604eaa" d="M 153.5,41.5 C 158.167,41.5 162.833,41.5 167.5,41.5C 167.5,43.5 167.5,45.5 167.5,47.5C 162.833,47.5 158.167,47.5 153.5,47.5C 153.5,45.5 153.5,43.5 153.5,41.5 Z"/></g>
<g><path style="opacity:1" fill="#998dc4" d="M 152.5,41.5 C 152.833,41.5 153.167,41.5 153.5,41.5C 153.5,43.5 153.5,45.5 153.5,47.5C 158.167,47.5 162.833,47.5 167.5,47.5C 167.5,49.8333 167.5,52.1667 167.5,54.5C 171.833,54.5 176.167,54.5 180.5,54.5C 180.5,54.8333 180.5,55.1667 180.5,55.5C 175.833,55.5 171.167,55.5 166.5,55.5C 166.5,53.1667 166.5,50.8333 166.5,48.5C 161.833,48.5 157.167,48.5 152.5,48.5C 152.5,46.1667 152.5,43.8333 152.5,41.5 Z"/></g>
<g><path style="opacity:1" fill="#614fab" d="M 167.5,47.5 C 171.833,47.5 176.167,47.5 180.5,47.5C 180.5,49.8333 180.5,52.1667 180.5,54.5C 176.167,54.5 171.833,54.5 167.5,54.5C 167.5,52.1667 167.5,49.8333 167.5,47.5 Z"/></g>
<g><path style="opacity:1" fill="#aba2cd" d="M 146.5,54.5 C 151.167,54.5 155.833,54.5 160.5,54.5C 160.5,56.8333 160.5,59.1667 160.5,61.5C 159.539,59.7354 159.205,57.7354 159.5,55.5C 154.968,55.8182 150.634,55.4849 146.5,54.5 Z"/></g>
<g><path style="opacity:0.894" fill="#604eaa" d="M 180.5,54.5 C 185.167,54.5 189.833,54.5 194.5,54.5C 194.5,56.8333 194.5,59.1667 194.5,61.5C 189.833,61.5 185.167,61.5 180.5,61.5C 180.5,59.5 180.5,57.5 180.5,55.5C 180.5,55.1667 180.5,54.8333 180.5,54.5 Z"/></g>
<g><path style="opacity:0.902" fill="#614eab" d="M 112.5,55.5 C 112.5,57.8333 112.5,60.1667 112.5,62.5C 108.167,62.5 103.833,62.5 99.5,62.5C 99.5,60.1667 99.5,57.8333 99.5,55.5C 103.833,55.5 108.167,55.5 112.5,55.5 Z"/></g>
<g><path style="opacity:1" fill="#9082c0" d="M 112.5,54.5 C 112.5,54.8333 112.5,55.1667 112.5,55.5C 108.167,55.5 103.833,55.5 99.5,55.5C 99.5,57.8333 99.5,60.1667 99.5,62.5C 94.8333,62.5 90.1667,62.5 85.5,62.5C 85.5,64.8333 85.5,67.1667 85.5,69.5C 83.1667,69.5 80.8333,69.5 78.5,69.5C 80.2646,68.5386 82.2646,68.2053 84.5,68.5C 84.5,66.1667 84.5,63.8333 84.5,61.5C 89.1667,61.5 93.8333,61.5 98.5,61.5C 98.5,59.1667 98.5,56.8333 98.5,54.5C 103.167,54.5 107.833,54.5 112.5,54.5 Z"/></g>
<g><path style="opacity:0.835" fill="#614eab" d="M 99.5,62.5 C 99.5,64.8333 99.5,67.1667 99.5,69.5C 94.8333,69.5 90.1667,69.5 85.5,69.5C 85.5,67.1667 85.5,64.8333 85.5,62.5C 90.1667,62.5 94.8333,62.5 99.5,62.5 Z"/></g>
<g><path style="opacity:0.921" fill="#5d49b2" d="M 78.5,69.5 C 80.8333,69.5 83.1667,69.5 85.5,69.5C 86.7522,75.9214 84.4189,77.9214 78.5,75.5C 78.5,73.5 78.5,71.5 78.5,69.5 Z"/></g>
<g><path style="opacity:0.953" fill="#6250ab" d="M 153.5,41.5 C 153.167,41.5 152.833,41.5 152.5,41.5C 136.833,41.5 121.167,41.5 105.5,41.5C 105.5,43.8333 105.5,46.1667 105.5,48.5C 100.833,48.5 96.1667,48.5 91.5,48.5C 91.5,50.5 91.5,52.5 91.5,54.5C 87.1667,54.5 82.8333,54.5 78.5,54.5C 78.5,56.8333 78.5,59.1667 78.5,61.5C 73.8333,61.5 69.1667,61.5 64.5,61.5C 64.5,63.8333 64.5,66.1667 64.5,68.5C 62.1667,68.5 59.8333,68.5 57.5,68.5C 57.5,70.8333 57.5,73.1667 57.5,75.5C 55.5,75.5 53.5,75.5 51.5,75.5C 51.5,82.1667 51.5,88.8333 51.5,95.5C 53.6074,96.4682 55.9407,96.8016 58.5,96.5C 58.5,109.833 58.5,123.167 58.5,136.5C 62.5,136.5 66.5,136.5 70.5,136.5C 70.5,134.167 70.5,131.833 70.5,129.5C 75.5,129.5 80.5,129.5 85.5,129.5C 85.5,131.833 85.5,134.167 85.5,136.5C 80.6367,136.181 75.97,136.514 71.5,137.5C 71.5,139.5 71.5,141.5 71.5,143.5C 66.8333,143.5 62.1667,143.5 57.5,143.5C 57.5,148.167 57.5,152.833 57.5,157.5C 59.8333,157.5 62.1667,157.5 64.5,157.5C 64.5,159.5 64.5,161.5 64.5,163.5C 66.2646,164.461 68.2646,164.795 70.5,164.5C 70.1818,169.032 70.5151,173.366 71.5,177.5C 73.5,177.5 75.5,177.5 77.5,177.5C 77.8333,177.5 78.1667,177.5 78.5,177.5C 78.5,179.833 78.5,182.167 78.5,184.5C 78.5,186.833 78.5,189.167 78.5,191.5C 80.5,191.5 82.5,191.5 84.5,191.5C 84.5,196.167 84.5,200.833 84.5,205.5C 86.8333,205.5 89.1667,205.5 91.5,205.5C 91.5,207.5 91.5,209.5 91.5,211.5C 93.8333,211.5 96.1667,211.5 98.5,211.5C 98.5,213.833 98.5,216.167 98.5,218.5C 100.833,218.5 103.167,218.5 105.5,218.5C 105.5,216.167 105.5,213.833 105.5,211.5C 107.833,211.5 110.167,211.5 112.5,211.5C 112.5,207.167 112.5,202.833 112.5,198.5C 110.167,198.5 107.833,198.5 105.5,198.5C 105.5,193.833 105.5,189.167 105.5,184.5C 103.167,184.5 100.833,184.5 98.5,184.5C 98.5,180.167 98.5,175.833 98.5,171.5C 96.7354,170.539 94.7354,170.205 92.5,170.5C 92.5,163.833 92.5,157.167 92.5,150.5C 94.8333,150.5 97.1667,150.5 99.5,150.5C 99.5,157.167 99.5,163.833 99.5,170.5C 101.833,170.5 104.167,170.5 106.5,170.5C 106.5,175.167 106.5,179.833 106.5,184.5C 108.5,184.5 110.5,184.5 112.5,184.5C 112.5,188.833 112.5,193.167 112.5,197.5C 114.833,197.5 117.167,197.5 119.5,197.5C 119.5,202.5 119.5,207.5 119.5,212.5C 117.167,212.5 114.833,212.5 112.5,212.5C 112.5,214.833 112.5,217.167 112.5,219.5C 110.5,219.5 108.5,219.5 106.5,219.5C 106.5,221.5 106.5,223.5 106.5,225.5C 96.8333,225.5 87.1667,225.5 77.5,225.5C 77.6633,223.143 77.4966,220.81 77,218.5C 75,219.833 73,219.833 71,218.5C 70.501,214.179 70.3343,209.846 70.5,205.5C 68.1667,205.5 65.8333,205.5 63.5,205.5C 63.5,200.833 63.5,196.167 63.5,191.5C 61.1667,191.5 58.8333,191.5 56.5,191.5C 56.5,187.167 56.5,182.833 56.5,178.5C 54.1667,178.5 51.8333,178.5 49.5,178.5C 49.5,176.167 49.5,173.833 49.5,171.5C 47.1667,171.5 44.8333,171.5 42.5,171.5C 42.5,169.167 42.5,166.833 42.5,164.5C 40.5,164.5 38.5,164.5 36.5,164.5C 36.5,143.833 36.5,123.167 36.5,102.5C 38.5,102.5 40.5,102.5 42.5,102.5C 42.5,93.5 42.5,84.5 42.5,75.5C 44.8333,75.5 47.1667,75.5 49.5,75.5C 49.5,73.1667 49.5,70.8333 49.5,68.5C 51.8333,68.5 54.1667,68.5 56.5,68.5C 56.5,66.1667 56.5,63.8333 56.5,61.5C 58.8333,61.5 61.1667,61.5 63.5,61.5C 63.5,59.1667 63.5,56.8333 63.5,54.5C 68.1667,54.5 72.8333,54.5 77.5,54.5C 77.5,52.1667 77.5,49.8333 77.5,47.5C 81.8333,47.5 86.1667,47.5 90.5,47.5C 90.5,45.5 90.5,43.5 90.5,41.5C 95.1667,41.5 99.8333,41.5 104.5,41.5C 104.5,39.1667 104.5,36.8333 104.5,34.5C 120.833,34.5 137.167,34.5 153.5,34.5C 153.5,36.8333 153.5,39.1667 153.5,41.5 Z"/></g>
<g><path style="opacity:0.936" fill="#6250ab" d="M 78.5,75.5 C 78.5,77.8333 78.5,80.1667 78.5,82.5C 76.1667,82.5 73.8333,82.5 71.5,82.5C 71.5,84.8333 71.5,87.1667 71.5,89.5C 69.5,89.5 67.5,89.5 65.5,89.5C 65.5,91.8333 65.5,94.1667 65.5,96.5C 63.1667,96.5 60.8333,96.5 58.5,96.5C 58.5,94.1667 58.5,91.8333 58.5,89.5C 60.7354,89.7947 62.7354,89.4614 64.5,88.5C 64.5,84.1667 64.5,79.8333 64.5,75.5C 69.1667,75.5 73.8333,75.5 78.5,75.5 Z"/></g>
<g><path style="opacity:0.957" fill="#6250ac" d="M 146.5,54.5 C 150.634,55.4849 154.968,55.8182 159.5,55.5C 159.205,57.7354 159.539,59.7354 160.5,61.5C 164.833,61.5 169.167,61.5 173.5,61.5C 173.5,63.8333 173.5,66.1667 173.5,68.5C 175.833,68.5 178.167,68.5 180.5,68.5C 180.5,70.8333 180.5,73.1667 180.5,75.5C 184.833,75.5 189.167,75.5 193.5,75.5C 193.5,80.1667 193.5,84.8333 193.5,89.5C 195.833,89.5 198.167,89.5 200.5,89.5C 200.5,91.8333 200.5,94.1667 200.5,96.5C 202.833,96.5 205.167,96.5 207.5,96.5C 207.825,89.3134 207.491,82.3134 206.5,75.5C 204.5,75.5 202.5,75.5 200.5,75.5C 200.5,73.1667 200.5,70.8333 200.5,68.5C 198.5,68.5 196.5,68.5 194.5,68.5C 194.5,66.1667 194.5,63.8333 194.5,61.5C 196.833,61.5 199.167,61.5 201.5,61.5C 201.5,63.8333 201.5,66.1667 201.5,68.5C 203.833,68.5 206.167,68.5 208.5,68.5C 208.5,70.8333 208.5,73.1667 208.5,75.5C 210.833,75.5 213.167,75.5 215.5,75.5C 215.5,84.5 215.5,93.5 215.5,102.5C 217.5,102.5 219.5,102.5 221.5,102.5C 221.5,123.167 221.5,143.833 221.5,164.5C 219.5,164.5 217.5,164.5 215.5,164.5C 215.5,166.833 215.5,169.167 215.5,171.5C 213.167,171.5 210.833,171.5 208.5,171.5C 208.5,173.833 208.5,176.167 208.5,178.5C 206.167,178.5 203.833,178.5 201.5,178.5C 201.5,182.833 201.5,187.167 201.5,191.5C 199.167,191.5 196.833,191.5 194.5,191.5C 194.5,196.167 194.5,200.833 194.5,205.5C 192.167,205.5 189.833,205.5 187.5,205.5C 187.666,209.846 187.499,214.179 187,218.5C 185,219.833 183,219.833 181,218.5C 180.503,220.81 180.337,223.143 180.5,225.5C 170.833,225.5 161.167,225.5 151.5,225.5C 151.5,223.5 151.5,221.5 151.5,219.5C 149.5,219.5 147.5,219.5 145.5,219.5C 145.5,217.167 145.5,214.833 145.5,212.5C 147.833,212.5 150.167,212.5 152.5,212.5C 152.205,214.735 152.539,216.735 153.5,218.5C 155.833,218.5 158.167,218.5 160.5,218.5C 160.5,216.167 160.5,213.833 160.5,211.5C 162.5,211.5 164.5,211.5 166.5,211.5C 166.5,209.167 166.5,206.833 166.5,204.5C 168.833,204.5 171.167,204.5 173.5,204.5C 173.5,200.167 173.5,195.833 173.5,191.5C 175.833,191.5 178.167,191.5 180.5,191.5C 180.5,186.833 180.5,182.167 180.5,177.5C 182.5,177.5 184.5,177.5 186.5,177.5C 187.485,173.366 187.818,169.032 187.5,164.5C 189.833,164.5 192.167,164.5 194.5,164.5C 194.5,162.167 194.5,159.833 194.5,157.5C 196.5,157.5 198.5,157.5 200.5,157.5C 200.5,152.833 200.5,148.167 200.5,143.5C 196.167,143.5 191.833,143.5 187.5,143.5C 187.5,141.167 187.5,138.833 187.5,136.5C 191.5,136.5 195.5,136.5 199.5,136.5C 199.5,123.167 199.5,109.833 199.5,96.5C 197.167,96.5 194.833,96.5 192.5,96.5C 192.5,94.1667 192.5,91.8333 192.5,89.5C 190.5,89.5 188.5,89.5 186.5,89.5C 186.5,87.1667 186.5,84.8333 186.5,82.5C 184.167,82.5 181.833,82.5 179.5,82.5C 179.663,80.1432 179.497,77.8098 179,75.5C 173.322,77.6624 171.156,75.6624 172.5,69.5C 167.833,69.5 163.167,69.5 158.5,69.5C 158.5,67.1667 158.5,64.8333 158.5,62.5C 154.167,62.5 149.833,62.5 145.5,62.5C 145.5,60.1667 145.5,57.8333 145.5,55.5C 134.5,55.5 123.5,55.5 112.5,55.5C 112.5,55.1667 112.5,54.8333 112.5,54.5C 112.5,52.5 112.5,50.5 112.5,48.5C 123.833,48.5 135.167,48.5 146.5,48.5C 146.5,50.5 146.5,52.5 146.5,54.5 Z"/></g>
<g><path style="opacity:0.999" fill="#d1ccde" d="M 206.5,75.5 C 207.491,82.3134 207.825,89.3134 207.5,96.5C 205.167,96.5 202.833,96.5 200.5,96.5C 200.5,94.1667 200.5,91.8333 200.5,89.5C 201.461,91.2646 201.795,93.2646 201.5,95.5C 203.167,95.5 204.833,95.5 206.5,95.5C 206.5,88.8333 206.5,82.1667 206.5,75.5 Z"/></g>
<g><path style="opacity:1" fill="#a49ac9" d="M 193.5,75.5 C 194.485,79.6344 194.818,83.9677 194.5,88.5C 196.735,88.2053 198.735,88.5386 200.5,89.5C 198.167,89.5 195.833,89.5 193.5,89.5C 193.5,84.8333 193.5,80.1667 193.5,75.5 Z"/></g>
<g><path style="opacity:1" fill="#c8c3da" d="M 180.5,61.5 C 185.167,61.5 189.833,61.5 194.5,61.5C 194.5,63.8333 194.5,66.1667 194.5,68.5C 193.539,66.7354 193.205,64.7354 193.5,62.5C 188.968,62.8182 184.634,62.4849 180.5,61.5 Z"/></g>
<g><path style="opacity:1" fill="#9f94c7" d="M 64.5,88.5 C 62.7354,89.4614 60.7354,89.7947 58.5,89.5C 58.5,91.8333 58.5,94.1667 58.5,96.5C 55.9407,96.8016 53.6074,96.4682 51.5,95.5C 53.5,95.5 55.5,95.5 57.5,95.5C 57.5,93.1667 57.5,90.8333 57.5,88.5C 59.8333,88.5 62.1667,88.5 64.5,88.5 Z"/></g>
<g><path style="opacity:1" fill="#f7f7f0" d="M 44.5,103.5 C 46.5,103.5 48.5,103.5 50.5,103.5C 50.5,123.5 50.5,143.5 50.5,163.5C 48.5,163.5 46.5,163.5 44.5,163.5C 44.5,143.5 44.5,123.5 44.5,103.5 Z"/></g>
<g><path style="opacity:1" fill="#b7afd1" d="M 44.5,103.5 C 44.5,103.167 44.5,102.833 44.5,102.5C 46.8333,102.5 49.1667,102.5 51.5,102.5C 51.5,122.833 51.5,143.167 51.5,163.5C 51.1667,163.5 50.8333,163.5 50.5,163.5C 50.5,143.5 50.5,123.5 50.5,103.5C 48.5,103.5 46.5,103.5 44.5,103.5 Z"/></g>
<g><path style="opacity:1" fill="#dbd8e3" d="M 207.5,102.5 C 209.833,102.5 212.167,102.5 214.5,102.5C 214.5,123.167 214.5,143.833 214.5,164.5C 212.167,164.5 209.833,164.5 207.5,164.5C 207.5,143.833 207.5,123.167 207.5,102.5 Z"/></g>
<g><path style="opacity:1" fill="#f7f8f0" d="M 208.5,103.5 C 210.167,103.5 211.833,103.5 213.5,103.5C 213.5,123.5 213.5,143.5 213.5,163.5C 211.833,163.5 210.167,163.5 208.5,163.5C 208.5,143.5 208.5,123.5 208.5,103.5 Z"/></g>
<g><path style="opacity:1" fill="#a399c9" d="M 44.5,102.5 C 44.5,102.833 44.5,103.167 44.5,103.5C 44.5,123.5 44.5,143.5 44.5,163.5C 46.5,163.5 48.5,163.5 50.5,163.5C 50.8333,163.5 51.1667,163.5 51.5,163.5C 49.0521,164.473 46.3854,164.806 43.5,164.5C 43.1695,143.66 43.5028,122.993 44.5,102.5 Z"/></g>
<g><path style="opacity:0.864" fill="#604eaa" d="M 85.5,136.5 C 87.8333,136.5 90.1667,136.5 92.5,136.5C 92.5,140.833 92.5,145.167 92.5,149.5C 91.8333,149.5 91.5,149.833 91.5,150.5C 89.5,150.5 87.5,150.5 85.5,150.5C 85.5,145.833 85.5,141.167 85.5,136.5 Z"/></g>
<g><path style="opacity:1" fill="#c0c1d8" d="M 71.5,137.5 C 75.8333,137.5 80.1667,137.5 84.5,137.5C 84.1818,142.032 84.5151,146.366 85.5,150.5C 87.5,150.5 89.5,150.5 91.5,150.5C 91.5,157.5 91.5,164.5 91.5,171.5C 93.8333,171.5 96.1667,171.5 98.5,171.5C 98.5,175.833 98.5,180.167 98.5,184.5C 100.833,184.5 103.167,184.5 105.5,184.5C 105.5,189.167 105.5,193.833 105.5,198.5C 107.833,198.5 110.167,198.5 112.5,198.5C 112.5,202.833 112.5,207.167 112.5,211.5C 110.167,211.5 107.833,211.5 105.5,211.5C 105.5,213.833 105.5,216.167 105.5,218.5C 103.167,218.5 100.833,218.5 98.5,218.5C 98.5,216.167 98.5,213.833 98.5,211.5C 96.1667,211.5 93.8333,211.5 91.5,211.5C 91.5,209.5 91.5,207.5 91.5,205.5C 89.7354,204.539 87.7354,204.205 85.5,204.5C 85.8182,199.968 85.4849,195.634 84.5,191.5C 82.5,191.5 80.5,191.5 78.5,191.5C 78.5,189.167 78.5,186.833 78.5,184.5C 80.8333,184.5 83.1667,184.5 85.5,184.5C 85.5,182.167 85.5,179.833 85.5,177.5C 83.1667,177.5 80.8333,177.5 78.5,177.5C 78.1667,177.5 77.8333,177.5 77.5,177.5C 77.5,173.167 77.5,168.833 77.5,164.5C 75.5,164.5 73.5,164.5 71.5,164.5C 71.5,164.167 71.5,163.833 71.5,163.5C 71.5,161.5 71.5,159.5 71.5,157.5C 69.5,157.5 67.5,157.5 65.5,157.5C 65.5,159.5 65.5,161.5 65.5,163.5C 65.1667,163.5 64.8333,163.5 64.5,163.5C 64.5,161.5 64.5,159.5 64.5,157.5C 62.7354,156.539 60.7354,156.205 58.5,156.5C 58.5,152.5 58.5,148.5 58.5,144.5C 63.0323,144.818 67.3656,144.485 71.5,143.5C 71.5,141.5 71.5,139.5 71.5,137.5 Z"/></g>
<g><path style="opacity:1" fill="#9c95c6" d="M 71.5,137.5 C 75.97,136.514 80.6367,136.181 85.5,136.5C 85.5,141.167 85.5,145.833 85.5,150.5C 84.5151,146.366 84.1818,142.032 84.5,137.5C 80.1667,137.5 75.8333,137.5 71.5,137.5 Z"/></g>
<g><path style="opacity:1" fill="#bfc0d8" d="M 187.5,136.5 C 187.5,138.833 187.5,141.167 187.5,143.5C 191.833,143.5 196.167,143.5 200.5,143.5C 200.5,148.167 200.5,152.833 200.5,157.5C 198.5,157.5 196.5,157.5 194.5,157.5C 194.5,159.833 194.5,162.167 194.5,164.5C 192.167,164.5 189.833,164.5 187.5,164.5C 187.818,169.032 187.485,173.366 186.5,177.5C 186.5,173.167 186.5,168.833 186.5,164.5C 184.5,164.5 182.5,164.5 180.5,164.5C 180.5,168.833 180.5,173.167 180.5,177.5C 180.5,182.167 180.5,186.833 180.5,191.5C 178.167,191.5 175.833,191.5 173.5,191.5C 173.5,195.833 173.5,200.167 173.5,204.5C 171.167,204.5 168.833,204.5 166.5,204.5C 166.5,206.833 166.5,209.167 166.5,211.5C 164.5,211.5 162.5,211.5 160.5,211.5C 160.5,213.833 160.5,216.167 160.5,218.5C 158.167,218.5 155.833,218.5 153.5,218.5C 153.5,216.167 153.5,213.833 153.5,211.5C 151.167,211.5 148.833,211.5 146.5,211.5C 146.5,207.167 146.5,202.833 146.5,198.5C 148.833,198.5 151.167,198.5 153.5,198.5C 153.5,193.833 153.5,189.167 153.5,184.5C 155.5,184.5 157.5,184.5 159.5,184.5C 160.485,180.366 160.818,176.032 160.5,171.5C 162.735,171.795 164.735,171.461 166.5,170.5C 166.5,163.833 166.5,157.167 166.5,150.5C 168.833,150.5 171.167,150.5 173.5,150.5C 173.5,145.833 173.5,141.167 173.5,136.5C 178.167,136.5 182.833,136.5 187.5,136.5 Z"/></g>
<g><path style="opacity:1" fill="#a29dca" d="M 71.5,143.5 C 67.3656,144.485 63.0323,144.818 58.5,144.5C 58.5,148.5 58.5,152.5 58.5,156.5C 60.7354,156.205 62.7354,156.539 64.5,157.5C 62.1667,157.5 59.8333,157.5 57.5,157.5C 57.5,152.833 57.5,148.167 57.5,143.5C 62.1667,143.5 66.8333,143.5 71.5,143.5 Z"/></g>
<g><path style="opacity:1" fill="#857abc" d="M 92.5,149.5 C 92.5,149.833 92.5,150.167 92.5,150.5C 92.5,157.167 92.5,163.833 92.5,170.5C 94.7354,170.205 96.7354,170.539 98.5,171.5C 96.1667,171.5 93.8333,171.5 91.5,171.5C 91.5,164.5 91.5,157.5 91.5,150.5C 91.5,149.833 91.8333,149.5 92.5,149.5 Z"/></g>
<g><path style="opacity:1" fill="#f6f6f0" d="M 71.5,163.5 C 69.5,163.5 67.5,163.5 65.5,163.5C 65.5,161.5 65.5,159.5 65.5,157.5C 67.5,157.5 69.5,157.5 71.5,157.5C 71.5,159.5 71.5,161.5 71.5,163.5 Z"/></g>
<g><path style="opacity:1" fill="#f6f6f0" d="M 187.5,157.5 C 189.5,157.5 191.5,157.5 193.5,157.5C 193.5,159.5 193.5,161.5 193.5,163.5C 191.5,163.5 189.5,163.5 187.5,163.5C 187.5,161.5 187.5,159.5 187.5,157.5 Z"/></g>
<g><path style="opacity:1" fill="#877abc" d="M 64.5,163.5 C 64.8333,163.5 65.1667,163.5 65.5,163.5C 67.5,163.5 69.5,163.5 71.5,163.5C 71.5,163.833 71.5,164.167 71.5,164.5C 71.5,168.833 71.5,173.167 71.5,177.5C 70.5151,173.366 70.1818,169.032 70.5,164.5C 68.2646,164.795 66.2646,164.461 64.5,163.5 Z"/></g>
<g><path style="opacity:0.991" fill="#f8f8f0" d="M 71.5,164.5 C 73.5,164.5 75.5,164.5 77.5,164.5C 77.5,168.833 77.5,173.167 77.5,177.5C 75.5,177.5 73.5,177.5 71.5,177.5C 71.5,173.167 71.5,168.833 71.5,164.5 Z"/></g>
<g><path style="opacity:1" fill="#f8f8f0" d="M 186.5,177.5 C 184.5,177.5 182.5,177.5 180.5,177.5C 180.5,173.167 180.5,168.833 180.5,164.5C 182.5,164.5 184.5,164.5 186.5,164.5C 186.5,168.833 186.5,173.167 186.5,177.5 Z"/></g>
<g><path style="opacity:0.956" fill="#6250ac" d="M 187.5,136.5 C 182.833,136.5 178.167,136.5 173.5,136.5C 173.5,141.167 173.5,145.833 173.5,150.5C 171.167,150.5 168.833,150.5 166.5,150.5C 166.5,157.167 166.5,163.833 166.5,170.5C 164.167,170.5 161.833,170.5 159.5,170.5C 159.5,175.167 159.5,179.833 159.5,184.5C 157.5,184.5 155.5,184.5 153.5,184.5C 152.515,188.634 152.182,192.968 152.5,197.5C 150.167,197.5 147.833,197.5 145.5,197.5C 145.5,193.167 145.5,188.833 145.5,184.5C 147.5,184.5 149.5,184.5 151.5,184.5C 151.5,179.833 151.5,175.167 151.5,170.5C 153.833,170.5 156.167,170.5 158.5,170.5C 158.5,163.833 158.5,157.167 158.5,150.5C 160.833,150.5 163.167,150.5 165.5,150.5C 165.5,145.833 165.5,141.167 165.5,136.5C 167.833,136.5 170.167,136.5 172.5,136.5C 172.5,134.167 172.5,131.833 172.5,129.5C 177.5,129.5 182.5,129.5 187.5,129.5C 187.5,131.833 187.5,134.167 187.5,136.5 Z"/></g>
<g><path style="opacity:1" fill="#8c82bf" d="M 166.5,170.5 C 164.735,171.461 162.735,171.795 160.5,171.5C 160.818,176.032 160.485,180.366 159.5,184.5C 159.5,179.833 159.5,175.167 159.5,170.5C 161.833,170.5 164.167,170.5 166.5,170.5 Z"/></g>
<g><path style="opacity:0.991" fill="#f2f2ee" d="M 78.5,177.5 C 80.8333,177.5 83.1667,177.5 85.5,177.5C 85.5,179.833 85.5,182.167 85.5,184.5C 83.1667,184.5 80.8333,184.5 78.5,184.5C 78.5,182.167 78.5,179.833 78.5,177.5 Z"/></g>
<g><path style="opacity:1" fill="#f5f5ef" d="M 173.5,177.5 C 175.5,177.5 177.5,177.5 179.5,177.5C 179.5,179.833 179.5,182.167 179.5,184.5C 177.5,184.5 175.5,184.5 173.5,184.5C 173.5,182.167 173.5,179.833 173.5,177.5 Z"/></g>
<g><path style="opacity:1" fill="#8b81bf" d="M 84.5,191.5 C 85.4849,195.634 85.8182,199.968 85.5,204.5C 87.7354,204.205 89.7354,204.539 91.5,205.5C 89.1667,205.5 86.8333,205.5 84.5,205.5C 84.5,200.833 84.5,196.167 84.5,191.5 Z"/></g>
<g><path style="opacity:0.835" fill="#614fab" d="M 145.5,197.5 C 145.5,202.5 145.5,207.5 145.5,212.5C 143.167,212.5 140.833,212.5 138.5,212.5C 138.5,207.5 138.5,202.5 138.5,197.5C 140.833,197.5 143.167,197.5 145.5,197.5 Z"/></g>
<g><path style="opacity:1" fill="#7e72b9" d="M 153.5,184.5 C 153.5,189.167 153.5,193.833 153.5,198.5C 151.167,198.5 148.833,198.5 146.5,198.5C 146.5,202.833 146.5,207.167 146.5,211.5C 148.833,211.5 151.167,211.5 153.5,211.5C 153.5,213.833 153.5,216.167 153.5,218.5C 152.539,216.735 152.205,214.735 152.5,212.5C 150.167,212.5 147.833,212.5 145.5,212.5C 145.5,207.5 145.5,202.5 145.5,197.5C 147.833,197.5 150.167,197.5 152.5,197.5C 152.182,192.968 152.515,188.634 153.5,184.5 Z"/></g>
</svg>
